<svg width="30" height="27" viewBox="0 0 30 27" fill="none" xmlns="http://www.w3.org/2000/svg">
<path d="M29.4704 20.3452C29.4001 22.171 28.5071 23.8491 27.1406 25.0324C24.4911 27.3272 20.0019 27.8217 16.547 24.3287L2.36809 9.99755C0.931543 8.54506 0.42318 6.74792 0.975953 5.06803C1.51721 3.41598 3.03185 2.10547 4.83298 1.72659C6.66867 1.34197 8.54509 1.95304 9.98169 3.40412L23.5429 17.1104C24.3173 17.8926 24.7599 18.7609 24.8224 19.6175C24.8852 20.467 24.565 21.2621 23.9397 21.8036C22.8035 22.7837 20.7397 22.8512 18.9871 21.0783L9.46269 11.4517C9.07196 11.0562 9.09568 10.4406 9.51568 10.0764C9.93567 9.71215 10.5944 9.73753 10.9851 10.133L20.511 19.7611C21.3327 20.5931 22.145 20.6979 22.5233 20.3717C22.687 20.2281 22.7687 20.005 22.7475 19.7426C22.7197 19.3413 22.4586 18.8745 22.0205 18.4291L8.46076 4.72288C7.52986 3.78198 6.40759 3.39228 5.30161 3.62542C4.76066 3.74243 4.26135 3.98999 3.85207 4.34412C3.4428 4.69825 3.13743 5.14693 2.96556 5.6467C2.63248 6.66052 2.96254 7.73948 3.89344 8.68038L18.0724 23.0115C20.7142 25.6813 23.8929 25.1886 25.7256 23.6019C27.5584 22.0138 28.3308 19.0894 25.686 16.4181L11.507 2.08695C11.4142 1.99349 11.3418 1.88351 11.2941 1.76344C11.2464 1.64336 11.2244 1.51559 11.2293 1.38758C11.2343 1.25957 11.266 1.13387 11.3228 1.01782C11.3796 0.90177 11.4602 0.797688 11.56 0.711645C11.7633 0.53647 12.0313 0.444249 12.3065 0.454849C12.5816 0.465449 12.8418 0.578022 13.031 0.768317L27.2099 15.0994C28.8791 16.7886 29.5364 18.6339 29.4704 20.3452Z" fill="#AF9854"/>
</svg>
