<svg width="52" height="38" viewBox="0 0 52 38" fill="none" xmlns="http://www.w3.org/2000/svg">
<path d="M33.4501 37.3762C29.6564 37.2477 25.9056 36.8386 22.1948 36.1213C19.1198 35.5256 16.0738 34.7752 12.9973 34.192C10.7819 33.7718 8.53059 33.5452 6.30689 33.1679C5.15703 32.973 4.02514 32.6579 2.89878 32.3497C2.50905 32.2433 2.13452 32.0291 1.79177 31.8052C0.499564 30.9566 0.288111 29.4143 1.29147 28.2312C2.0281 27.3633 3.01211 26.8644 4.04449 26.4553C6.43542 25.5072 8.94797 25.0899 11.4868 24.8065C12.4791 24.696 13.4797 24.6338 14.4775 24.5937C14.8216 24.5799 14.9004 24.3975 14.9958 24.1432C17.5346 17.3891 20.9496 11.1161 25.3984 5.42759C26.2331 4.35927 27.2171 3.4029 28.1735 2.43547C29.7573 0.832307 31.7336 0.215917 33.9518 0.0514546C38.1325 -0.258122 41.8668 0.826778 45.1767 3.37249C45.7434 3.80922 46.2948 4.3109 46.7163 4.88168C48.2172 6.91604 49.45 9.10243 50.1175 11.5652C50.2267 11.9688 50.4022 12.4566 49.9848 12.7634C49.5702 13.0675 49.1142 12.845 48.7244 12.6156C48.3554 12.3972 48.0085 12.1388 47.6686 11.8748C47.1655 11.4837 46.6735 11.076 46.1842 10.6669C45.1657 9.81694 44.0131 9.64695 42.7872 10.0602C41.9745 10.3338 41.1854 10.6862 40.4018 11.0373C39.7591 11.3261 39.1345 11.6592 38.5098 11.9881C38.0993 12.2037 37.7773 12.3516 37.3447 11.9121C37.1056 11.6703 36.5805 11.6412 36.1824 11.6371C35.1901 11.6274 34.8018 11.5141 34.6097 10.5536C34.5337 10.1721 34.231 10.0173 33.8592 10.1113C33.5027 10.2011 33.3921 10.4817 33.4225 10.8327C33.5137 11.8679 34.2669 12.6778 35.2952 12.8063C35.6351 12.8491 35.982 12.8256 36.3248 12.8478C36.7491 12.8754 37.1056 12.9777 37.1347 13.5153C37.2881 16.4369 37.9929 19.2687 38.5499 22.1254C38.695 22.8689 38.8332 23.6152 39.0032 24.3532C39.1027 24.7886 39.0156 25.1714 38.666 25.416C38.08 25.8265 37.4732 26.2204 36.8361 26.5438C36.3856 26.7718 36.17 27.0054 36.3068 27.3854C36.4436 27.7613 36.7961 27.9009 37.2466 27.7074C38.2099 27.2928 39.0557 26.7207 39.6693 25.8389C39.7536 25.7173 39.972 25.5888 40.0991 25.6123C43.2654 26.2079 46.4302 26.8285 49.3602 28.2423C49.9558 28.5298 50.5225 28.9278 51.0131 29.3742C51.8036 30.0928 51.8617 30.9649 51.1513 31.754C50.6634 32.2958 50.0885 32.8085 49.4583 33.1679C46.1842 35.0364 42.6835 36.3231 38.9548 36.8897C37.1374 37.1633 35.2869 37.22 33.4501 37.3762ZM28.7885 30.2836C29.6675 30.2836 30.5465 30.2919 31.4254 30.2808C31.8331 30.2753 32.0874 30.0486 32.0722 29.6368C32.0584 29.2526 31.8041 29.0577 31.4213 29.0466C31.2831 29.0425 31.1449 29.0494 31.0081 29.0522C28.4209 29.0992 25.8351 29.084 23.2673 28.726C21.6268 28.498 19.9946 28.2299 18.5393 27.3564C18.0971 27.0911 17.735 27.1297 17.5539 27.4794C17.3342 27.9037 17.5111 28.2423 17.905 28.4137C18.7535 28.784 19.598 29.1987 20.4852 29.4364C23.2009 30.1661 25.9927 30.2808 28.7885 30.2836Z" fill="#AF9854"/>
</svg>
