<svg width="54" height="54" viewBox="0 0 54 54" fill="none" xmlns="http://www.w3.org/2000/svg">
<path d="M0 40.5282C0.153406 39.8759 0.247385 39.2029 0.472657 38.5768C1.66121 35.2585 3.94158 33.0238 7.30131 31.9651C9.53469 31.2603 11.8054 30.6784 14.054 30.0247C14.3373 29.9432 14.5114 29.9639 14.7312 30.1851C17.4565 32.927 20.193 35.6579 22.9377 38.3819C23.1381 38.5809 23.1851 38.7454 23.1132 39.0108C22.4568 41.421 21.8874 43.8589 21.1493 46.243C19.9608 50.0781 17.3059 52.3032 13.3505 52.9804C13.2524 52.997 13.1584 53.0398 13.0617 53.0716C9.08829 53.0716 5.11493 53.0716 1.14156 53.0716C0.63021 52.8229 0.248767 52.4442 0.00138181 51.9314C-2.3194e-07 48.1294 0 44.3288 0 40.5282Z" fill="#AF9854"/>
<path d="M53.0711 1.96941C52.7394 2.37849 52.4547 2.84009 52.0663 3.18698C48.5034 6.37258 45.8513 10.3045 43.0955 14.1452C40.6272 17.5864 37.5798 20.3229 33.9008 22.4277C32.4331 23.268 31.1188 24.4013 29.8169 25.4986C28.8591 26.3071 28.0354 27.2745 27.0998 28.2226C27.7894 28.9095 28.4805 29.6019 29.177 30.2874C29.611 30.7144 29.868 31.223 29.698 31.8242C29.6096 32.1393 29.4272 32.4959 29.1756 32.6852C27.7425 33.7591 26.2761 34.7887 24.8568 35.8086C22.3124 33.2657 19.7985 30.7545 17.2583 28.2171C18.281 26.7894 19.3023 25.3162 20.3789 23.8844C20.9483 23.1257 21.9793 23.1229 22.7022 23.825C23.4194 24.5215 24.1091 25.2457 24.9908 26.1399C25.1456 25.8856 25.2368 25.6451 25.4013 25.4765C27.1758 23.6591 28.9573 21.8487 31.1132 20.468C31.6509 20.1239 32.1899 19.7797 32.7468 19.4702C35.7832 17.7758 38.2764 15.4871 40.3121 12.6733C42.0922 10.2119 43.8308 7.71316 45.749 5.36093C47.1739 3.61403 48.8517 2.07444 50.4286 0.453309C50.6124 0.263969 50.875 0.14926 51.1003 0C51.3767 0 51.6531 0 51.9295 0C52.445 0.244621 52.8237 0.626064 53.0697 1.14018C53.0711 1.41659 53.0711 1.693 53.0711 1.96941Z" fill="#AF9854"/>
<path d="M53.0705 1.14029C52.8244 0.626124 52.4457 0.244645 51.9302 0C52.3103 0 52.6904 0 53.0705 0C53.0705 0.380097 53.0705 0.760195 53.0705 1.14029Z" fill="#AF9854"/>
<path d="M0 51.9301C0.247409 52.4428 0.628888 52.8216 1.14029 53.0703C0.760195 53.0703 0.380097 53.0703 0 53.0703C0 52.6902 0 52.3102 0 51.9301Z" fill="#AF9854"/>
<path d="M14.9427 1.76484C15.7112 1.77313 16.3193 2.30798 16.4699 3.12339C16.5611 3.61539 16.6164 4.11431 16.7173 4.60355C17.0877 6.40573 18.0579 7.79468 19.6306 8.7552C19.954 8.95283 20.2816 9.14631 20.6133 9.32874C21.2227 9.66458 21.5945 10.1524 21.5489 10.8697C21.5047 11.5842 21.079 12.0182 20.4377 12.2905C18.6107 13.0644 17.3917 14.4064 16.8403 16.3094C16.6537 16.9507 16.5901 17.6293 16.4893 18.294C16.3497 19.2103 15.754 19.7922 14.9303 19.7935C14.1066 19.7949 13.5054 19.2117 13.3658 18.2996C13.2608 17.6182 13.1945 16.923 13.0037 16.2652C12.4606 14.3801 11.2527 13.0547 9.46158 12.2531C8.56187 11.8496 8.17767 11.0646 8.50521 10.2519C8.61025 9.99212 8.82861 9.77514 9.01104 9.55125C9.07323 9.47524 9.1755 9.42548 9.2681 9.37988C11.8359 8.13742 13.1198 6.04916 13.3769 3.24501C13.4626 2.30937 14.1177 1.75655 14.9427 1.76484Z" fill="#AF9854"/>
<path d="M51.4116 33.1454C51.3853 33.9277 50.9583 34.3989 50.2562 34.6975C48.4485 35.4673 47.2447 36.8023 46.696 38.686C46.5053 39.3439 46.4417 40.0404 46.3353 40.7204C46.1985 41.598 45.6015 42.1729 44.7957 42.184C43.972 42.1936 43.357 41.6104 43.2174 40.7052C43.1124 40.0238 43.0488 39.3273 42.8595 38.6694C42.3108 36.7664 41.0919 35.4313 39.2786 34.6284C38.3969 34.2386 38.0182 33.4108 38.3693 32.6064C38.4867 32.3356 38.7148 32.0978 38.9387 31.8947C39.1391 31.7123 39.3961 31.5893 39.6394 31.4566C41.7096 30.333 42.8374 28.5819 43.1152 26.2587C43.1483 25.9851 43.1884 25.7114 43.2465 25.4419C43.4137 24.6639 44.0301 24.1511 44.7805 24.1525C45.531 24.1539 46.1501 24.6652 46.3105 25.4447C46.4279 26.0183 46.4943 26.6042 46.62 27.175C47.0015 28.8998 47.9717 30.21 49.4712 31.1332C49.8678 31.3778 50.2769 31.6003 50.6722 31.8463C51.1448 32.1448 51.3812 32.5857 51.4116 33.1454Z" fill="#AF9854"/>
<path d="M49.7787 19.7966C48.9425 19.8105 48.2223 19.1166 48.2016 18.279C48.1809 17.4193 48.8955 16.6895 49.7579 16.6895C50.5969 16.6895 51.3018 17.3903 51.3087 18.232C51.3143 19.0724 50.6204 19.7828 49.7787 19.7966Z" fill="#AF9854"/>
<path d="M32.3826 5.90958C33.223 5.93308 33.9099 6.65042 33.8933 7.49078C33.8768 8.35188 33.1318 9.05402 32.2734 9.01532C31.4358 8.978 30.7572 8.24407 30.7876 7.40924C30.8194 6.57026 31.545 5.88608 32.3826 5.90958Z" fill="#AF9854"/>
<path d="M7.35819 23.1977C7.36925 24.038 6.67955 24.7526 5.83918 24.7706C4.98224 24.7899 4.24968 24.0684 4.25245 23.2115C4.2566 22.3725 4.96012 21.6676 5.7991 21.6648C6.64084 21.6607 7.34852 22.3573 7.35819 23.1977Z" fill="#AF9854"/>
<path d="M32.2352 43.9297C32.2448 44.77 31.5551 45.4846 30.7148 45.5026C29.8578 45.5206 29.1253 44.8005 29.1294 43.9421C29.1336 43.1032 29.8385 42.3982 30.6761 42.3955C31.5178 42.3927 32.2255 43.0879 32.2352 43.9297Z" fill="#AF9854"/>
</svg>
