<svg width="51" height="51" viewBox="0 0 51 51" fill="none" xmlns="http://www.w3.org/2000/svg">
<path d="M17.596 35.401C17.0308 34.826 16.4628 34.2497 15.9473 33.7246C25.9214 23.7518 35.9315 13.7444 45.903 3.77438C46.4019 4.2733 46.9948 4.86481 47.5656 5.43559C37.6121 15.3877 27.6089 25.3881 17.596 35.401Z" fill="#AF9854"/>
<path d="M2.8576 50.6241C2.14585 49.9137 1.37882 49.1467 0.660156 48.4294C5.46551 43.6254 10.2943 38.7979 15.0831 34.0106C15.7686 34.703 16.5412 35.481 17.2681 36.2135C12.5194 40.9636 7.69059 45.7911 2.8576 50.6241Z" fill="#AF9854"/>
<path d="M30.3941 4.97672C30.2186 5.06794 30.0514 5.19923 29.8648 5.24207C28.8918 5.46735 27.9161 5.68433 26.9349 5.86952C26.6294 5.92756 26.5023 6.04918 26.4442 6.34909C26.2715 7.24603 26.0808 8.13883 25.8679 9.0261C25.803 9.29698 25.8887 9.7641 25.4533 9.71988C25.2944 9.7033 25.123 9.26934 25.0553 9.00122C24.8342 8.11533 24.6462 7.22115 24.4707 6.32559C24.4154 6.04642 24.2993 5.92618 24.016 5.8709C23.0347 5.68156 22.0576 5.47287 21.0861 5.24207C20.9009 5.19785 20.7502 5.01404 20.583 4.89518C20.7433 4.77356 20.8884 4.58699 21.0681 4.54276C22.0051 4.31473 22.9463 4.09775 23.8971 3.9319C24.2952 3.8628 24.4389 3.67761 24.508 3.31551C24.6752 2.43515 24.8535 1.55618 25.0677 0.688255C25.1285 0.44087 25.3345 0.228036 25.4727 0C25.6053 0.236329 25.7961 0.458836 25.8582 0.711749C26.0711 1.58105 26.2549 2.45865 26.418 3.33901C26.4843 3.69419 26.6391 3.85451 26.9998 3.92223C27.9811 4.10604 28.9568 4.32578 29.9297 4.54829C30.0901 4.58422 30.2283 4.71137 30.3775 4.79568C30.3844 4.85787 30.39 4.91729 30.3941 4.97672Z" fill="#AF9854"/>
<path d="M21.6712 18.1469C21.4984 17.8456 21.3754 17.706 21.3353 17.5456C21.2067 17.0287 21.1376 16.4938 20.9842 15.9852C20.9289 15.8027 20.7258 15.5899 20.5475 15.5359C20.0222 15.377 19.4694 15.3079 18.9386 15.1641C18.7893 15.1241 18.6774 14.9444 18.5488 14.8297C18.6829 14.7191 18.8018 14.5477 18.9552 14.5062C19.4873 14.3652 20.0388 14.2948 20.5654 14.1427C20.734 14.0943 20.9289 13.8953 20.9787 13.7267C21.128 13.2167 21.1943 12.6818 21.3339 12.1676C21.3795 11.9976 21.5523 11.8607 21.667 11.7087C21.7873 11.8538 21.9683 11.9824 22.0167 12.1482C22.1549 12.6265 22.271 13.1171 22.3318 13.6106C22.3788 13.9948 22.5696 14.1275 22.9193 14.1856C23.4113 14.2657 23.902 14.3722 24.3816 14.5035C24.5378 14.5463 24.6608 14.7066 24.799 14.8145C24.6594 14.9388 24.5378 15.1282 24.3761 15.1738C23.8467 15.3203 23.2952 15.3936 22.7658 15.5429C22.6083 15.5871 22.4203 15.7668 22.3774 15.9216C22.2296 16.4509 22.1522 16.9997 22.0181 17.5332C21.9766 17.7018 21.8439 17.8497 21.6712 18.1469Z" fill="#AF9854"/>
<path d="M34.9363 11.333C34.6737 11.4878 34.5341 11.6163 34.3724 11.6564C33.8555 11.7877 33.3344 11.9107 32.8078 11.9868C32.4871 12.0324 32.3765 12.1982 32.3226 12.4788C32.2217 13.0027 32.1236 13.5279 31.984 14.0421C31.9439 14.1927 31.7698 14.3061 31.6564 14.4374C31.5431 14.3074 31.3676 14.1941 31.3261 14.0434C31.1837 13.5307 31.0676 13.0068 30.9833 12.4816C30.9349 12.1775 30.8147 12.0379 30.5023 11.9895C29.9923 11.9107 29.485 11.8029 28.9888 11.6633C28.8216 11.6163 28.6889 11.4394 28.541 11.3219C28.6861 11.2045 28.8133 11.0262 28.9778 10.9792C29.474 10.8409 29.9826 10.7428 30.4899 10.6502C30.7774 10.5977 30.9336 10.4857 30.9819 10.1651C31.0635 9.62187 31.1934 9.0842 31.3358 8.55207C31.3731 8.41385 31.5334 8.30742 31.6371 8.18579C31.7546 8.31295 31.9384 8.42214 31.9785 8.57004C32.1195 9.0842 32.2245 9.60805 32.3143 10.1333C32.3683 10.4484 32.5092 10.6032 32.8354 10.6544C33.362 10.7359 33.8845 10.852 34.4 10.9847C34.5562 11.0262 34.6875 11.1671 34.9363 11.333Z" fill="#AF9854"/>
<path d="M46.735 18.1081C46.5747 17.8621 46.4503 17.7419 46.4144 17.5995C46.2872 17.0992 46.1808 16.5933 46.0882 16.086C46.0274 15.7515 45.9154 15.5387 45.5201 15.4917C45.0087 15.4323 44.5028 15.3051 44.0066 15.1683C43.856 15.1268 43.7426 14.9526 43.6113 14.8393C43.7413 14.726 43.856 14.5504 44.0052 14.5103C44.5194 14.3721 45.0446 14.2685 45.5699 14.1759C45.8601 14.1247 46.0149 13.9989 46.0661 13.6949C46.1587 13.1517 46.2748 12.6126 46.4144 12.0805C46.4503 11.9409 46.6093 11.8345 46.7129 11.7128C46.829 11.8372 47.0101 11.9437 47.0516 12.0902C47.1994 12.6195 47.3252 13.1586 47.4095 13.7018C47.4551 13.9976 47.5934 14.1109 47.8601 14.1634C48.4006 14.2671 48.9437 14.3707 49.4745 14.5145C49.6182 14.5532 49.7219 14.7398 49.8449 14.8587C49.7274 14.9637 49.6238 15.1282 49.4883 15.1627C48.9396 15.3065 48.3743 15.3922 47.8283 15.5442C47.6735 15.5871 47.4883 15.7654 47.4455 15.9188C47.2893 16.4634 47.1994 17.0273 47.0585 17.5774C47.0211 17.728 46.8898 17.8594 46.735 18.1081Z" fill="#AF9854"/>
<path d="M42.4648 22.3616C42.216 22.5205 42.0944 22.6449 41.9506 22.6809C41.4005 22.8205 40.8352 22.9076 40.292 23.0665C40.1276 23.1149 39.9382 23.3125 39.8898 23.4798C39.7378 24.0078 39.6645 24.5579 39.5208 25.0886C39.4807 25.2379 39.3024 25.3499 39.1877 25.4784C39.0743 25.3471 38.8988 25.2324 38.8587 25.0817C38.7177 24.5496 38.6472 23.9995 38.4952 23.4715C38.4468 23.3029 38.2519 23.108 38.0847 23.0568C37.5926 22.9076 37.0743 22.8426 36.5768 22.703C36.3888 22.6505 36.234 22.4846 36.064 22.3699C36.2409 22.2413 36.4012 22.0548 36.5989 21.9967C37.0771 21.8571 37.5692 21.759 38.0626 21.6829C38.3542 21.6387 38.4689 21.4922 38.5187 21.2241C38.6168 20.7002 38.7177 20.175 38.8546 19.6594C38.896 19.506 39.0578 19.3844 39.1656 19.2476C39.2913 19.3844 39.4862 19.5005 39.5291 19.6594C39.6756 20.1888 39.7461 20.7403 39.894 21.2697C39.9368 21.4217 40.1206 21.5986 40.2754 21.6442C40.82 21.8004 41.3826 21.893 41.9327 22.0368C42.0875 22.0769 42.2188 22.2068 42.4648 22.3616Z" fill="#AF9854"/>
<path d="M50.3054 2.71995C49.5991 3.42348 48.8666 4.15327 48.1354 4.88305C47.5811 4.29978 47.0048 3.69439 46.4561 3.11664C47.1306 2.43799 47.87 1.69576 48.5915 0.970123C49.143 1.53405 49.718 2.12009 50.3054 2.71995Z" fill="#AF9854"/>
</svg>
