<svg width="45" height="53" viewBox="0 0 45 53" fill="none" xmlns="http://www.w3.org/2000/svg">
<path d="M5.6892 52.7566C6.76442 52.3019 7.84794 51.8652 8.91073 51.3801C9.16364 51.264 9.38339 51.0166 9.552 50.783C10.3107 49.7313 10.384 48.6229 9.95831 47.386C9.5672 46.2513 9.35851 45.0545 9.06137 43.8466C7.71112 44.2474 6.39404 44.6371 4.9733 45.06C5.08525 44.8085 5.15158 44.6426 5.23036 44.4823C6.05958 42.7755 6.88328 41.0659 7.7277 39.3674C7.88249 39.0578 7.88387 38.8063 7.73876 38.4953C7.19976 37.3386 6.67183 36.1763 6.17429 35.0015C6.01536 34.627 5.82602 34.4998 5.40864 34.5261C3.70459 34.6325 1.99639 34.6947 0.151367 34.779C3.33835 31.7233 5.78456 28.3553 6.58199 24.0765C10.5028 25.3038 14.4403 25.2194 18.48 24.5105C18.1345 22.9598 17.8276 21.5308 17.4821 20.1114C17.4503 19.9774 17.1947 19.8433 17.0233 19.8088C16.2176 19.6471 15.4049 19.5213 14.584 19.3803C15.5583 18.8565 16.5189 18.3908 17.4296 17.8394C19.1972 16.7697 20.7037 15.4097 21.743 13.5979C22.9357 11.5165 23.1513 9.30389 22.5363 6.91434C21.5937 6.91434 20.6373 6.91434 19.6823 6.91434C21.7734 4.97534 23.7124 3.01423 24.3633 0C24.9783 2.97138 26.3852 5.27939 28.8356 7.00417C28.2814 7.00417 27.7244 7.04011 27.173 6.9945C26.6381 6.95027 26.4295 7.14514 26.3147 7.67032C25.2381 12.5724 27.3679 16.6771 32.0433 18.6465C32.5021 18.84 32.9693 19.0141 33.4917 19.22C32.7246 19.4854 32.0101 19.7162 31.3108 19.9843C31.1436 20.0479 30.9446 20.2109 30.8962 20.3699C30.5687 21.4562 30.2771 22.5549 29.944 23.7572C34.701 22.4816 39.1249 20.7168 42.9103 17.5049C43.3028 22.577 43.4963 27.6173 44.9557 32.5346C43.8611 32.1283 42.7734 31.7247 41.6333 31.3004C41.2878 32.3411 40.9492 33.3666 40.6078 34.3907C39.8615 36.6309 39.1027 38.8685 38.3799 41.1157C38.3039 41.3534 38.3399 41.703 38.467 41.9172C39.3432 43.4043 40.2678 44.8582 41.8544 45.874C40.5387 45.9335 39.3253 45.9874 38.0441 46.0454C37.9653 47.227 37.8879 48.3866 37.8161 49.4894C40.3369 50.139 42.4183 51.5279 44.5756 52.7593C31.6121 52.7566 18.6513 52.7566 5.6892 52.7566ZM22.311 49.5295C23.8506 49.5295 25.3335 49.5378 26.8164 49.5143C26.9325 49.5129 27.1163 49.3139 27.1481 49.1785C27.4066 48.0701 27.6512 46.9589 27.8723 45.8436C28.1252 44.5763 27.9193 43.3988 27.0555 42.3968C25.7136 40.8406 23.3323 40.9706 22.1977 42.6635C21.5882 43.5729 21.3422 44.6053 21.5135 45.675C21.7195 46.9492 22.0318 48.2069 22.311 49.5295ZM35.4942 45.9694C34.448 45.7745 33.4751 45.5935 32.4579 45.4041C32.3197 46.5001 32.187 47.5504 32.0461 48.6727C33.0397 48.6727 33.9643 48.6727 34.9497 48.6727C35.1239 47.8075 35.3049 46.9064 35.4942 45.9694ZM39.9154 21.9136C38.6232 23.315 37.3766 24.7399 36.0484 26.0832C34.7134 27.4335 33.2954 28.7036 31.9189 30.0041C32.4745 30.2874 32.9264 30.1395 33.3493 29.7553C33.7321 29.407 34.1551 29.103 34.5296 28.745C36.5902 26.7756 38.2597 24.4911 39.82 22.1209C39.8601 22.0601 39.8836 21.9841 39.9154 21.9136ZM6.79759 32.5705C10.3328 33.1123 15.141 31.9762 17.2942 30.2058C13.817 31.2479 10.3937 32.2941 6.79759 32.5705ZM27.2918 31.5146C27.2449 30.8623 27.202 30.286 27.1592 29.6834C26.5179 29.7166 25.9347 29.7346 25.3542 29.7871C25.2395 29.7981 25.046 29.9336 25.0405 30.0207C25.0115 30.5458 25.0253 31.0738 25.0253 31.6473C25.8089 31.6003 26.511 31.5602 27.2918 31.5146ZM24.2099 31.6998C24.2099 31.0503 24.2099 30.4588 24.2099 29.8479C23.5203 29.8949 22.8721 29.9391 22.1894 29.9847C22.1465 30.6053 22.1051 31.194 22.0608 31.8367C22.8196 31.7883 23.5009 31.7441 24.2099 31.6998ZM27.3305 32.2858C26.5525 32.3314 25.8089 32.3743 25.0516 32.4185C25.0516 32.9008 25.0516 33.3223 25.0516 33.7522C25.8628 33.7522 26.6437 33.7522 27.4466 33.7522C27.4079 33.2574 27.372 32.7999 27.3305 32.2858ZM24.214 29.0864C24.214 28.3055 24.214 27.58 24.214 26.8489C23.0794 27.0576 22.1562 28.2226 22.3428 29.2039C22.9522 29.1665 23.5645 29.1279 24.214 29.0864ZM23.7179 20.3187C22.9495 20.3187 22.2585 20.3187 21.5688 20.3187C21.5896 21.3732 22.8458 22.4775 23.7179 22.3572C23.7179 21.6787 23.7179 21.0001 23.7179 20.3187ZM25.0488 26.8337C25.0488 27.5717 25.0488 28.271 25.0488 29.0366C25.7371 28.991 26.3935 28.9482 27.0528 28.9053C26.9076 27.8149 26.1088 26.9857 25.0488 26.8337ZM35.4141 36.2661C35.0064 36.1997 34.6775 36.1459 34.3375 36.0906C34.0915 37.0317 33.8634 37.9038 33.6285 38.8021C34.0638 38.9003 34.4135 38.979 34.8101 39.0689C35.0092 38.1429 35.204 37.239 35.4141 36.2661ZM36.4105 39.424C36.5902 38.4221 36.7574 37.4892 36.9316 36.5245C36.557 36.4665 36.2613 36.4209 35.931 36.3697C35.7264 37.3303 35.5329 38.2438 35.3326 39.185C35.7016 39.2665 36.0153 39.3356 36.4105 39.424ZM23.635 17.4856C22.5459 17.6016 21.6393 18.5014 21.6034 19.4024C22.2806 19.4024 22.9578 19.4024 23.635 19.4024C23.635 18.728 23.635 18.1296 23.635 17.4856ZM24.6107 20.2234C24.6107 20.9448 24.6107 21.6206 24.6107 22.3033C25.6431 22.1195 26.4433 21.1797 26.4336 20.2234C25.8214 20.2234 25.2105 20.2234 24.6107 20.2234ZM24.2251 32.471C23.7939 32.4959 23.4152 32.5166 23.0365 32.5401C21.7969 32.6147 22.0083 32.4213 21.9599 33.6526C21.9586 33.6817 21.9848 33.7107 22.0097 33.7632C22.7339 33.7632 23.4664 33.7632 24.2251 33.7632C24.2251 33.3334 24.2251 32.9271 24.2251 32.471ZM26.4129 19.3154C26.1213 18.2526 25.281 17.5077 24.5167 17.5519C24.5167 18.1531 24.5167 18.7501 24.5167 19.3541C25.0391 19.3541 25.5049 19.3568 25.9692 19.3527C26.1047 19.3527 26.2387 19.332 26.4129 19.3154ZM36.0719 33.1924C35.2482 33.4191 34.6042 34.4432 34.5545 35.5806C34.8627 35.6331 35.1764 35.6856 35.5233 35.7437C35.7112 34.8744 35.8895 34.0452 36.0719 33.1924ZM36.9799 35.9855C37.3697 34.8827 37.2011 33.7646 36.5805 33.3403C36.4036 34.1682 36.2309 34.9822 36.0498 35.8363C36.3967 35.8916 36.6939 35.9385 36.9799 35.9855ZM16.7745 44.8817C16.6211 43.9198 16.0835 43.3905 15.1354 43.2634C15.1797 43.83 15.2225 44.3856 15.2709 45.0047C15.7974 44.9605 16.2839 44.9218 16.7745 44.8817ZM15.8734 35.0762C16.4193 34.9863 16.9141 34.9062 17.4158 34.8232C17.1311 33.86 16.4967 33.4067 15.6302 33.531C15.7062 34.0161 15.7822 34.5012 15.8734 35.0762ZM16.9238 46.6397C16.892 46.196 16.8671 45.8298 16.8395 45.4345C16.3033 45.476 15.832 45.5119 15.3165 45.5506C15.3469 45.9694 15.3745 46.3398 15.4063 46.7654C15.9218 46.7226 16.3917 46.6825 16.9238 46.6397ZM17.5181 35.3871C16.9791 35.4714 16.4829 35.5502 15.9536 35.6345C16.0282 36.0477 16.089 36.3932 16.1581 36.7733C16.7082 36.6724 17.2043 36.5812 17.7295 36.4845C17.6535 36.0933 17.5899 35.7644 17.5181 35.3871ZM13.3333 45.1595C13.7907 45.1208 14.2108 45.0835 14.6711 45.0448C14.6227 44.4519 14.5771 43.906 14.5315 43.3352C13.6608 43.6945 13.2683 44.304 13.3333 45.1595ZM13.5088 46.9023C13.9579 46.8705 14.3725 46.8401 14.8245 46.8083C14.7789 46.3729 14.7416 46.0039 14.6987 45.5907C14.2371 45.6322 13.817 45.6695 13.3526 45.7109C13.4051 46.1228 13.4535 46.4877 13.5088 46.9023ZM24.4048 7.73251C24.7904 7.73665 25.1331 7.39944 25.1386 7.01108C25.1442 6.61859 24.8194 6.28966 24.42 6.28413C24.0137 6.2786 23.6958 6.58818 23.693 6.99312C23.6903 7.38838 24.0178 7.72836 24.4048 7.73251ZM15.5418 48.3423C16.0628 48.2898 16.5189 48.2428 17.0205 48.1917C16.9998 47.8324 16.9805 47.5173 16.9611 47.1773C16.4249 47.2229 15.9495 47.263 15.4409 47.3058C15.4754 47.6582 15.5044 47.9623 15.5418 48.3423ZM10.7267 34.4114C10.8166 34.9462 10.8981 35.4244 10.981 35.9192C11.4468 35.8432 11.8337 35.781 12.2179 35.7174C12.1281 34.9531 11.6458 34.515 10.7267 34.4114ZM10.4102 36.009C10.3273 35.4728 10.2555 35.0057 10.1808 34.522C9.38339 34.8758 9.03373 35.4991 9.2286 36.1928C9.59346 36.1362 9.96246 36.0795 10.4102 36.009ZM15.0843 33.6637C14.3449 34.0424 14.0353 34.645 14.1915 35.3484C14.5536 35.2876 14.9171 35.2268 15.3165 35.1591C15.2377 34.645 15.1645 34.1792 15.0843 33.6637ZM14.2302 35.8985C14.3034 36.3214 14.367 36.6835 14.4361 37.0746C14.8466 37 15.1949 36.9364 15.5832 36.8645C15.521 36.4665 15.4671 36.1182 15.4049 35.7271C15.011 35.7851 14.6614 35.8363 14.2302 35.8985ZM11.0487 36.4803C11.1151 36.8631 11.1704 37.1741 11.227 37.5044C11.6942 37.4201 12.0977 37.3468 12.5483 37.2653C12.4902 36.9184 12.4391 36.6075 12.381 36.2633C11.9236 36.3366 11.52 36.4029 11.0487 36.4803ZM13.5793 47.4468C13.6332 47.8393 13.676 48.1544 13.7271 48.5248C14.139 48.4833 14.5177 48.4446 14.935 48.4018C14.906 48.0286 14.8798 47.7121 14.8521 47.35C14.4154 47.3832 14.0298 47.4122 13.5793 47.4468ZM10.4973 36.5688C10.0744 36.6365 9.68191 36.6987 9.24933 36.7678C9.32534 37.1603 9.38753 37.485 9.45249 37.8209C9.90027 37.7366 10.2803 37.6661 10.6742 37.5928C10.6106 37.2238 10.5581 36.9226 10.4973 36.5688ZM40.2098 27.5468C40.3521 27.1073 40.4834 26.7038 40.6147 26.2961C39.8684 26.144 39.3391 26.408 38.959 27.128C39.3653 27.2649 39.7634 27.3975 40.2098 27.5468ZM40.7114 27.703C40.9326 27.7776 41.1081 27.8384 41.2864 27.8965C41.4564 27.9517 41.6277 28.0056 41.8088 28.0623C41.9111 27.3105 41.6996 26.8516 41.1081 26.5186C40.9837 26.8945 40.8593 27.2621 40.7114 27.703ZM38.789 27.6394C38.7932 28.3677 39.0765 28.8252 39.6749 29.161C39.8048 28.7699 39.9209 28.4216 40.0439 28.0499C39.6044 27.9061 39.2313 27.7845 38.789 27.6394ZM41.6125 28.5598C41.2228 28.4382 40.9022 28.3373 40.5415 28.224C40.4226 28.5972 40.3189 28.9275 40.1932 29.3227C40.8206 29.2757 41.2753 29.1127 41.6125 28.5598Z" fill="#AF9854"/>
</svg>
