<svg width="53" height="43" viewBox="0 0 53 43" fill="none" xmlns="http://www.w3.org/2000/svg">
<path d="M46.8568 13.8549C48.2955 13.8867 49.6748 13.895 51.0237 13.5785C51.2725 13.5204 51.477 13.1929 51.6594 12.9566C51.77 12.8128 51.7645 12.5834 51.8709 12.4355C51.958 12.3153 52.1404 12.1909 52.2717 12.1992C52.3919 12.2075 52.5633 12.3733 52.602 12.5019C53.3234 14.8887 52.2164 16.8608 49.8006 17.4689C47.6598 18.0079 45.508 18.5055 43.3686 19.0458C42.9263 19.1578 42.6568 19.061 42.5297 18.6312C42.0446 16.9797 41.6189 15.3074 41.0689 13.6766C40.6529 12.4438 40.9168 11.504 41.9091 10.7052C42.4454 10.274 42.9498 9.80137 43.4529 9.3301C43.5607 9.22921 43.6049 9.0606 43.6782 8.92239C43.5137 8.90028 43.3244 8.81321 43.1889 8.86573C41.6383 9.46277 40.5547 10.6002 39.6813 11.9656C38.7263 13.4596 38.0685 15.0932 37.5405 16.7751C36.8896 18.8468 36.2248 20.9171 35.6803 23.0164C35.0501 25.4502 35.3707 27.808 36.5551 30.0413C37.7008 32.2042 39.0856 34.1944 40.733 36.0062C41.3024 36.6323 41.9713 37.0206 42.8033 37.0317C44.3222 37.0524 45.841 37.0179 47.3599 37.004C47.9044 36.9985 48.2527 36.7193 48.3412 36.1928C48.4697 35.4327 48.6134 34.6656 48.6328 33.8986C48.6521 33.1399 48.2472 32.8759 47.552 33.1827C46.5915 33.607 45.6738 34.1294 44.723 34.5786C44.5267 34.6712 44.1867 34.7334 44.0527 34.6297C43.7431 34.3865 43.9477 34.0866 44.1729 33.8889C44.8211 33.3195 45.4568 32.7308 46.1562 32.2291C47.3336 31.3847 48.5554 30.5997 49.7619 29.7953C49.9623 29.6613 50.1737 29.541 50.3921 29.4401C51.166 29.0836 51.5931 29.2771 51.7437 30.1049C52.1459 32.3203 52.3795 34.5509 52.1943 36.8036C52.1418 37.4352 52.0146 38.0654 51.8764 38.686C51.7562 39.2305 51.4162 39.6161 50.927 39.9174C49.1635 41.0023 47.3212 41.8785 45.2647 42.2434C42.1773 42.792 39.6011 41.9075 37.3235 39.7211C35.4606 37.9328 33.4524 36.2729 31.378 34.732C28.2048 32.3756 24.5286 31.082 20.6838 30.3551C17.1416 29.6861 13.5677 29.1803 9.9951 28.6911C8.72777 28.5169 7.87229 28.0318 7.32224 26.8405C5.63201 23.1767 3.87958 19.5406 2.14512 15.8962C0.738206 12.94 0.528136 9.86495 1.1929 6.69593C1.23159 6.51074 1.2924 6.32416 1.3007 6.13758C1.35045 4.89513 2.06635 4.07282 2.96467 3.3127C4.59271 1.93619 6.39766 0.8886 8.39056 0.145063C8.84663 -0.0249274 9.05946 0.110512 9.19076 0.554147C9.90527 2.97272 10.2535 5.44104 10.2121 7.96326C10.2079 8.25487 10.1983 8.53819 9.8182 8.57412C9.43399 8.60867 9.42708 8.29771 9.38701 8.05309C9.18799 6.86868 8.82866 5.74094 8.23577 4.69335C7.88335 4.07144 7.55857 3.96087 6.91454 4.28289C5.53112 4.97529 4.90505 6.14588 4.95066 7.6523C4.97139 8.31568 5.09854 8.99288 5.28511 9.63276C5.72598 11.1433 6.53724 12.4729 7.51711 13.689C8.66835 15.1195 10.2853 15.6336 12.0322 15.8063C13.7156 15.9722 15.4058 16.0772 17.0905 16.2472C17.3158 16.2707 17.5659 16.4849 17.7207 16.6784C18.8319 18.0646 19.8712 19.5102 21.0293 20.8535C22.4279 22.4774 24.2121 23.5955 26.2037 24.3722C26.3654 24.4358 26.5892 24.3363 26.7841 24.3128C26.6763 24.1331 26.6141 23.8705 26.4566 23.7876C24.3227 22.6585 22.4417 21.206 20.9298 19.3278C20.1213 18.3244 19.4441 17.2132 18.7254 16.1394C18.4421 15.7165 18.4338 15.2535 18.7337 14.8265C21.9207 10.2837 25.2874 5.89435 29.0659 1.8118C30.5585 0.198964 32.228 -0.212884 34.2278 0.0939287C38.5936 0.762836 42.9567 1.45662 47.3198 2.14626C47.5396 2.18081 47.7566 2.24853 47.968 2.32177C48.8276 2.62444 49.151 3.18417 48.8857 4.05623C48.6203 4.92968 48.2555 5.77135 47.9735 6.63927C47.2922 8.73582 46.89 10.8835 46.8499 13.0934C46.8541 13.3311 46.8568 13.5674 46.8568 13.8549ZM33.6128 28.4078C33.3847 28.2986 33.2617 28.2005 33.1277 28.1811C31.7733 27.9835 30.6773 26.6443 30.857 25.1766C31.0574 23.5388 32.5389 22.5604 33.8132 22.7069C33.9265 22.7193 34.0509 22.6253 34.1711 22.5811C34.0965 22.4622 34.0509 22.3019 33.9445 22.2314C33.2921 21.7947 32.5624 21.5998 31.7816 21.6717C29.8702 21.8472 28.4688 23.3592 28.473 25.218C28.4785 27.0465 30.0554 28.8058 31.8534 28.9578C32.4588 29.0103 33.0323 28.8859 33.6128 28.4078Z" fill="#AF9854"/>
</svg>
