<svg width="46" height="54" viewBox="0 0 46 54" fill="none" xmlns="http://www.w3.org/2000/svg">
<path d="M11.5529 53.0703C10.2289 52.5893 9.77976 51.6191 9.80049 50.2495C9.84057 47.4965 9.73553 47.8254 11.5902 45.9652C12.4181 45.1346 13.2418 44.3012 14.0876 43.4499C17.949 46.8442 22.3992 48.6326 27.5155 48.6326C32.6318 48.6312 37.0847 46.8511 40.8756 43.5107C42.1706 44.7767 43.4766 45.9846 44.6859 47.2809C45.0121 47.6306 45.1074 48.2414 45.1959 48.7514C45.2788 49.2379 45.1848 49.752 45.2208 50.2495C45.3189 51.6178 44.8034 52.5893 43.4794 53.0703C32.8363 53.0703 22.1946 53.0703 11.5529 53.0703Z" fill="#AF9854"/>
<path d="M0.980469 15.2369C1.18501 15.1637 1.38541 15.0421 1.59409 15.0241C3.73073 14.8375 5.20536 13.367 5.34771 11.247C5.37259 10.8697 5.45275 10.5228 5.89915 10.5145C6.3718 10.5048 6.4644 10.8448 6.48513 11.2553C6.58326 13.2551 8.08277 14.8016 10.1019 15.0061C10.2056 15.0172 10.3424 14.9785 10.406 15.0324C10.5953 15.1941 10.8648 15.3738 10.8925 15.5769C10.9146 15.7289 10.6437 16.015 10.4474 16.0855C10.0978 16.2113 9.69561 16.1836 9.33351 16.2818C7.75246 16.7074 6.59155 18.1489 6.48375 19.7852C6.47822 19.8709 6.48098 19.958 6.47546 20.0437C6.45196 20.3823 6.28612 20.6075 5.93646 20.62C5.57989 20.6324 5.41958 20.3988 5.3643 20.0727C5.29105 19.6332 5.27999 19.1688 5.12797 18.757C4.55442 17.2091 3.42668 16.337 1.7779 16.1435C1.50979 16.1118 1.24858 16.0233 0.983232 15.9611C0.980468 15.7206 0.980469 15.4788 0.980469 15.2369Z" fill="#AF9854"/>
<path d="M23.2659 -2.28882e-05C23.3806 0.234924 23.5727 0.461578 23.5962 0.704817C23.8173 2.89673 25.14 4.25251 27.3443 4.49713C27.7106 4.53721 28.0533 4.59664 28.0478 5.07068C28.0422 5.54057 27.7119 5.59309 27.336 5.62626C25.2671 5.80731 23.8381 7.21837 23.6197 9.27899C23.6045 9.41581 23.6446 9.59133 23.5741 9.68393C23.4414 9.85806 23.2383 10.111 23.0821 10.0999C22.8886 10.0861 22.6177 9.8705 22.5473 9.68116C22.4256 9.34947 22.4643 8.9625 22.3773 8.61423C21.9585 6.91847 20.5875 5.78381 18.7715 5.62764C18.3942 5.59447 18.0667 5.54057 18.0625 5.07068C18.0584 4.59526 18.4039 4.53998 18.7688 4.4999C20.9717 4.25804 22.2722 2.92299 22.5127 0.704817C22.539 0.461578 22.7324 0.236306 22.8485 0.00274125C22.9895 -2.28249e-05 23.1277 -2.28882e-05 23.2659 -2.28882e-05Z" fill="#AF9854"/>
<path d="M45.2102 28.7354C45.2088 38.4788 37.2787 46.4352 27.5657 46.4366C17.7504 46.438 9.79128 38.4719 9.81892 28.676C9.84656 18.9644 17.7795 11.0605 27.4924 11.066C37.2869 11.0702 45.2116 18.9741 45.2102 28.7354ZM20.3003 22.9433C19.8442 22.9765 19.7503 23.2791 19.7295 23.691C19.6438 25.4282 18.4912 26.8627 16.83 27.3091C16.5163 27.3935 16.186 27.428 15.8612 27.457C15.5171 27.4874 15.3029 27.6422 15.2904 27.9946C15.278 28.3526 15.4991 28.5198 15.8349 28.5599C15.9372 28.5723 16.0409 28.5792 16.1445 28.5889C17.7836 28.7299 19.1518 29.8493 19.5844 31.4345C19.6825 31.7966 19.6411 32.2002 19.7655 32.5498C19.8401 32.7585 20.0958 33.0059 20.2962 33.0322C20.4537 33.0529 20.6776 32.782 20.8241 32.601C20.896 32.5125 20.8573 32.3342 20.8697 32.1974C20.9927 30.7822 21.6754 29.7015 22.9248 29.056C23.4583 28.781 24.0981 28.7022 24.6993 28.5765C25.0462 28.5032 25.306 28.3761 25.2936 27.996C25.2812 27.6215 25.0352 27.486 24.6703 27.4515C24.2612 27.4114 23.8369 27.363 23.4596 27.2152C21.8896 26.5974 20.9969 25.4462 20.8683 23.7421C20.8393 23.3551 20.7992 23.0027 20.3003 22.9433ZM34.1511 22.0795C34.14 23.2985 35.1185 24.306 36.3278 24.3226C37.5371 24.3391 38.5487 23.3565 38.5722 22.1417C38.5944 20.9393 37.6048 19.9221 36.39 19.9028C35.1766 19.8834 34.1608 20.8702 34.1511 22.0795Z" fill="#AF9854"/>
</svg>
