<svg width="47" height="55" viewBox="0 0 47 55" fill="none" xmlns="http://www.w3.org/2000/svg">
<path d="M33.7348 0C34.0872 0 34.4383 0 34.7907 0C34.8625 0.0414612 34.9289 0.0953606 35.0049 0.123001C36.579 0.700694 37.259 2.17118 36.6578 3.73427C36.4629 4.24148 36.2294 4.73487 36.0124 5.23516C35.1915 7.1327 34.3705 9.03024 33.5316 10.9692C33.8412 11.0909 34.1135 11.2042 34.3899 11.3065C36.5044 12.0887 38.4628 13.1418 40.0811 14.7381C42.1086 16.7379 43.1479 19.0915 42.4693 21.9855C42.3739 22.3932 42.4416 22.6668 42.6918 22.9875C45.4877 26.5738 46.8946 30.6108 46.6209 35.1922C46.4523 38.0019 45.6618 40.6292 44.1885 43.0104C43.2875 44.4671 42.1874 45.8008 41.1356 47.245C41.1785 47.3058 41.3001 47.4744 41.4217 47.643C42.0077 48.4557 42.6434 49.2379 43.1658 50.0892C43.7311 51.0083 43.6647 51.984 43.047 52.8699C42.4195 53.7696 41.5406 54.1511 40.4391 53.9769C39.6403 53.8512 39.0612 53.4006 38.5954 52.769C38.015 51.9826 37.4304 51.1976 36.8748 50.45C27.9136 55.2691 19.0299 55.2595 10.113 50.4472C9.52285 51.2432 8.93134 52.0504 8.33015 52.8506C7.67507 53.7212 6.80162 54.1649 5.71672 53.9894C3.70862 53.6646 2.83102 51.474 4.01266 49.7672C4.63182 48.8744 5.29796 48.0134 5.95166 47.1275C5.81484 46.9741 5.7029 46.8401 5.58128 46.7143C4.08453 45.1526 2.86834 43.3974 1.95619 41.4349C0.61423 38.5478 0.0904369 35.5087 0.412452 32.348C0.766254 28.868 2.09716 25.7654 4.27111 23.0317C4.56824 22.6571 4.61523 22.3296 4.50191 21.8804C4.14119 20.4556 4.29598 19.0569 4.85294 17.7025C5.66006 15.74 7.1029 14.3248 8.83598 13.1833C11.976 11.1157 15.5029 10.169 19.1833 9.71297C22.04 9.35917 24.9036 9.37437 27.7602 9.72679C28.1804 9.77793 28.331 9.63005 28.4844 9.26934C29.4712 6.9406 30.5174 4.63812 31.4765 2.29833C31.9271 1.19823 32.5504 0.34551 33.7348 0ZM31.4171 15.8852C31.3162 16.1104 31.2444 16.2694 31.1753 16.4283C30.6515 17.6376 30.1443 18.8524 29.6025 20.0534C28.9847 21.4188 27.5681 22.0283 26.2428 21.5294C24.7529 20.9697 24.1241 19.4508 24.7571 17.8877C25.1579 16.8982 25.596 15.9239 26.0175 14.9426C25.9539 14.9122 25.9249 14.8873 25.8945 14.8846C21.9391 14.5681 18.0625 14.9163 14.3254 16.326C12.8356 16.8885 11.4273 17.6086 10.341 18.8192C9.40953 19.8585 9.33766 20.9144 10.3023 21.9219C10.9947 22.6447 11.8212 23.2984 12.7015 23.7725C15.5264 25.2968 18.6222 25.8234 21.7912 25.981C25.7466 26.1758 29.6246 25.8082 33.323 24.2728C34.582 23.7503 35.7553 23.0801 36.662 22.0269C37.5755 20.9655 37.6114 19.9594 36.6993 18.9049C35.3117 17.299 33.4073 16.5734 31.4171 15.8852Z" fill="#AF9854"/>
</svg>
