<svg width="30" height="30" viewBox="0 0 30 30" fill="none" xmlns="http://www.w3.org/2000/svg">
<path d="M15 0C12.0333 0 9.13319 0.879735 6.66645 2.52796C4.19971 4.17618 2.27713 6.51886 1.14181 9.25975C0.00649925 12.0006 -0.290551 15.0166 0.288227 17.9263C0.867006 20.8361 2.29562 23.5088 4.3934 25.6066C6.49119 27.7044 9.16394 29.133 12.0736 29.7118C14.9834 30.2905 17.9994 29.9935 20.7403 28.8582C23.4811 27.7229 25.8238 25.8003 27.472 23.3335C29.1203 20.8668 30 17.9667 30 15C30 11.0217 28.4196 7.20644 25.6066 4.3934C22.7936 1.58035 18.9783 0 15 0ZM15 27.8571C12.4571 27.8571 9.9713 27.1031 7.85696 25.6903C5.74261 24.2776 4.09468 22.2695 3.12155 19.9202C2.14843 17.5709 1.89381 14.9857 2.38991 12.4917C2.88601 9.99765 4.11053 7.70673 5.90863 5.90863C7.70674 4.11052 9.99766 2.886 12.4917 2.3899C14.9857 1.89381 17.5709 2.14842 19.9202 3.12155C22.2696 4.09467 24.2776 5.74261 25.6903 7.85695C27.1031 9.9713 27.8571 12.4571 27.8571 15C27.8571 18.4099 26.5026 21.6802 24.0914 24.0914C21.6802 26.5025 18.4099 27.8571 15 27.8571Z" fill="#AF9854"/>
<path d="M19.2856 12.8571C20.4691 12.8571 21.4285 11.8977 21.4285 10.7143C21.4285 9.5308 20.4691 8.57141 19.2856 8.57141C18.1022 8.57141 17.1428 9.5308 17.1428 10.7143C17.1428 11.8977 18.1022 12.8571 19.2856 12.8571Z" fill="#AF9854"/>
<path d="M10.7145 12.8571C11.898 12.8571 12.8574 11.8977 12.8574 10.7143C12.8574 9.5308 11.898 8.57141 10.7145 8.57141C9.53108 8.57141 8.57169 9.5308 8.57169 10.7143C8.57169 11.8977 9.53108 12.8571 10.7145 12.8571Z" fill="#AF9854"/>
<path d="M20.3574 17.1429H9.64311C9.35895 17.1429 9.08643 17.2557 8.8855 17.4567C8.68457 17.6576 8.57169 17.9301 8.57169 18.2143C8.57169 19.9192 9.24898 21.5544 10.4546 22.76C11.6602 23.9656 13.2953 24.6429 15.0003 24.6429C16.7052 24.6429 18.3404 23.9656 19.5459 22.76C20.7515 21.5544 21.4288 19.9192 21.4288 18.2143C21.4288 17.9301 21.3159 17.6576 21.115 17.4567C20.9141 17.2557 20.6416 17.1429 20.3574 17.1429ZM15.0003 22.5C14.0507 22.4993 13.1282 22.1832 12.3777 21.6015C11.6272 21.0197 11.0912 20.2051 10.8538 19.2857H19.1467C18.9093 20.2051 18.3733 21.0197 17.6228 21.6015C16.8723 22.1832 15.9498 22.4993 15.0003 22.5Z" fill="#AF9854"/>
</svg>
